<svg id="레이어_1" data-name="레이어 1" xmlns="http://www.w3.org/2000/svg" xmlns:xlink="http://www.w3.org/1999/xlink" viewBox="0 0 512 80"><defs><style>.cls-1{fill:none;}.cls-2{clip-path:url(#clip-path);}.cls-3{fill:#ffa300;}.cls-4{fill:#fff;}.cls-5{clip-path:url(#clip-path-2);}.cls-6{clip-path:url(#clip-path-3);}.cls-7{clip-path:url(#clip-path-4);}.cls-8{clip-path:url(#clip-path-5);}.cls-9{clip-path:url(#clip-path-6);}.cls-10{clip-path:url(#clip-path-7);}.cls-11{clip-path:url(#clip-path-8);}.cls-12{clip-path:url(#clip-path-9);}.cls-13{clip-path:url(#clip-path-10);}.cls-14{clip-path:url(#clip-path-11);}.cls-15{clip-path:url(#clip-path-12);}.cls-16{clip-path:url(#clip-path-13);}.cls-17{clip-path:url(#clip-path-14);}.cls-18{clip-path:url(#clip-path-15);}.cls-19{clip-path:url(#clip-path-16);}.cls-20{clip-path:url(#clip-path-17);}.cls-21{clip-path:url(#clip-path-18);}.cls-22{clip-path:url(#clip-path-19);}.cls-23{clip-path:url(#clip-path-20);}.cls-24{clip-path:url(#clip-path-21);}.cls-25{clip-path:url(#clip-path-22);}.cls-26{clip-path:url(#clip-path-23);}.cls-27{clip-path:url(#clip-path-24);}.cls-28{clip-path:url(#clip-path-25);}.cls-29{clip-path:url(#clip-path-26);}.cls-30{clip-path:url(#clip-path-27);}.cls-31{clip-path:url(#clip-path-28);}.cls-32{clip-path:url(#clip-path-29);}.cls-33{clip-path:url(#clip-path-30);}.cls-34{clip-path:url(#clip-path-31);}.cls-35{clip-path:url(#clip-path-32);}.cls-36{clip-path:url(#clip-path-33);}.cls-37{clip-path:url(#clip-path-34);}</style><clipPath id="clip-path"><rect class="cls-1" x="64.75" y="24.75" width="22.5" height="15" rx="4"/></clipPath><clipPath id="clip-path-2"><rect class="cls-1" x="87.25" y="24.75" width="22.5" height="15" rx="4"/></clipPath><clipPath id="clip-path-3"><rect class="cls-1" x="109.75" y="24.75" width="22.5" height="15" rx="4"/></clipPath><clipPath id="clip-path-4"><rect class="cls-1" x="132.25" y="24.75" width="22.5" height="15" rx="4"/></clipPath><clipPath id="clip-path-5"><rect class="cls-1" x="154.75" y="24.75" width="22.5" height="15" rx="4"/></clipPath><clipPath id="clip-path-6"><rect class="cls-1" x="177.25" y="24.75" width="22.5" height="15" rx="4"/></clipPath><clipPath id="clip-path-7"><rect class="cls-1" x="199.75" y="24.75" width="22.5" height="15" rx="4"/></clipPath><clipPath id="clip-path-8"><rect class="cls-1" x="222.25" y="24.75" width="22.5" height="15" rx="4"/></clipPath><clipPath id="clip-path-9"><rect class="cls-1" x="244.75" y="24.75" width="22.5" height="15" rx="4"/></clipPath><clipPath id="clip-path-10"><rect class="cls-1" x="267.25" y="24.75" width="22.5" height="15" rx="4"/></clipPath><clipPath id="clip-path-11"><rect class="cls-1" x="289.75" y="24.75" width="22.5" height="15" rx="4"/></clipPath><clipPath id="clip-path-12"><rect class="cls-1" x="312.25" y="24.75" width="22.5" height="15" rx="4"/></clipPath><clipPath id="clip-path-13"><rect class="cls-1" x="334.75" y="24.75" width="22.5" height="15" rx="4"/></clipPath><clipPath id="clip-path-14"><rect class="cls-1" x="357.25" y="24.75" width="22.5" height="15" rx="4"/></clipPath><clipPath id="clip-path-15"><rect class="cls-1" x="379.75" y="24.75" width="22.5" height="15" rx="4"/></clipPath><clipPath id="clip-path-16"><rect class="cls-1" x="402.25" y="24.75" width="22.5" height="15" rx="4"/></clipPath><clipPath id="clip-path-17"><rect class="cls-1" x="424.75" y="24.75" width="22.5" height="15" rx="4"/></clipPath><clipPath id="clip-path-18"><rect class="cls-1" x="64.75" y="39.75" width="22.5" height="15" rx="4"/></clipPath><clipPath id="clip-path-19"><rect class="cls-1" x="87.25" y="39.75" width="22.5" height="15" rx="4"/></clipPath><clipPath id="clip-path-20"><rect class="cls-1" x="109.75" y="39.75" width="22.5" height="15" rx="4"/></clipPath><clipPath id="clip-path-21"><rect class="cls-1" x="132.25" y="39.75" width="22.5" height="15" rx="4"/></clipPath><clipPath id="clip-path-22"><rect class="cls-1" x="154.75" y="39.75" width="22.5" height="15" rx="4"/></clipPath><clipPath id="clip-path-23"><rect class="cls-1" x="177.25" y="39.75" width="22.5" height="15" rx="4"/></clipPath><clipPath id="clip-path-24"><rect class="cls-1" x="199.75" y="39.75" width="22.5" height="15" rx="4"/></clipPath><clipPath id="clip-path-25"><rect class="cls-1" x="222.25" y="39.75" width="22.5" height="15" rx="4"/></clipPath><clipPath id="clip-path-26"><rect class="cls-1" x="244.75" y="39.75" width="22.5" height="15" rx="4"/></clipPath><clipPath id="clip-path-27"><rect class="cls-1" x="267.25" y="39.75" width="22.5" height="15" rx="4"/></clipPath><clipPath id="clip-path-28"><rect class="cls-1" x="289.75" y="39.75" width="22.5" height="15" rx="4"/></clipPath><clipPath id="clip-path-29"><rect class="cls-1" x="312.25" y="39.75" width="22.5" height="15" rx="4"/></clipPath><clipPath id="clip-path-30"><rect class="cls-1" x="334.75" y="39.75" width="22.5" height="15" rx="4"/></clipPath><clipPath id="clip-path-31"><rect class="cls-1" x="357.25" y="39.75" width="22.5" height="15" rx="4"/></clipPath><clipPath id="clip-path-32"><rect class="cls-1" x="379.75" y="39.75" width="22.5" height="15" rx="4"/></clipPath><clipPath id="clip-path-33"><rect class="cls-1" x="402.25" y="39.75" width="22.5" height="15" rx="4"/></clipPath><clipPath id="clip-path-34"><rect class="cls-1" x="424.75" y="39.75" width="22.5" height="15" rx="4"/></clipPath></defs><g class="cls-2"><rect class="cls-3" x="64.75" y="24.75" width="22.5" height="15"/><rect class="cls-4" x="64.75" y="29.75" width="22.5" height="10"/></g><path d="M83.25,25.75a3,3,0,0,1,3,3v7a3,3,0,0,1-3,3H68.75a3,3,0,0,1-3-3v-7a3,3,0,0,1,3-3h14.5m0-1H68.75a4,4,0,0,0-4,4v7a4,4,0,0,0,4,4h14.5a4,4,0,0,0,4-4v-7a4,4,0,0,0-4-4Z"/><g class="cls-5"><rect class="cls-3" x="87.25" y="24.75" width="22.5" height="15"/><rect class="cls-4" x="87.25" y="29.75" width="22.5" height="10"/></g><path d="M105.75,25.75a3,3,0,0,1,3,3v7a3,3,0,0,1-3,3H91.25a3,3,0,0,1-3-3v-7a3,3,0,0,1,3-3h14.5m0-1H91.25a4,4,0,0,0-4,4v7a4,4,0,0,0,4,4h14.5a4,4,0,0,0,4-4v-7a4,4,0,0,0-4-4Z"/><g class="cls-6"><rect class="cls-3" x="109.75" y="24.75" width="22.5" height="15"/><rect class="cls-4" x="109.75" y="29.75" width="22.5" height="10"/></g><path d="M128.25,25.75a3,3,0,0,1,3,3v7a3,3,0,0,1-3,3h-14.5a3,3,0,0,1-3-3v-7a3,3,0,0,1,3-3h14.5m0-1h-14.5a4,4,0,0,0-4,4v7a4,4,0,0,0,4,4h14.5a4,4,0,0,0,4-4v-7a4,4,0,0,0-4-4Z"/><g class="cls-7"><rect class="cls-3" x="132.25" y="24.75" width="22.5" height="15"/><rect class="cls-4" x="132.25" y="29.75" width="22.5" height="10"/></g><path d="M150.75,25.75a3,3,0,0,1,3,3v7a3,3,0,0,1-3,3h-14.5a3,3,0,0,1-3-3v-7a3,3,0,0,1,3-3h14.5m0-1h-14.5a4,4,0,0,0-4,4v7a4,4,0,0,0,4,4h14.5a4,4,0,0,0,4-4v-7a4,4,0,0,0-4-4Z"/><g class="cls-8"><rect class="cls-3" x="154.75" y="24.75" width="22.5" height="15"/><rect class="cls-4" x="154.75" y="29.75" width="22.5" height="10"/></g><path d="M173.25,25.75a3,3,0,0,1,3,3v7a3,3,0,0,1-3,3h-14.5a3,3,0,0,1-3-3v-7a3,3,0,0,1,3-3h14.5m0-1h-14.5a4,4,0,0,0-4,4v7a4,4,0,0,0,4,4h14.5a4,4,0,0,0,4-4v-7a4,4,0,0,0-4-4Z"/><g class="cls-9"><rect class="cls-3" x="177.25" y="24.75" width="22.5" height="15"/><rect class="cls-4" x="177.25" y="29.75" width="22.5" height="10"/></g><path d="M195.75,25.75a3,3,0,0,1,3,3v7a3,3,0,0,1-3,3h-14.5a3,3,0,0,1-3-3v-7a3,3,0,0,1,3-3h14.5m0-1h-14.5a4,4,0,0,0-4,4v7a4,4,0,0,0,4,4h14.5a4,4,0,0,0,4-4v-7a4,4,0,0,0-4-4Z"/><g class="cls-10"><rect class="cls-3" x="199.75" y="24.75" width="22.5" height="15"/><rect class="cls-4" x="199.75" y="29.75" width="22.5" height="10"/></g><path d="M218.25,25.75a3,3,0,0,1,3,3v7a3,3,0,0,1-3,3h-14.5a3,3,0,0,1-3-3v-7a3,3,0,0,1,3-3h14.5m0-1h-14.5a4,4,0,0,0-4,4v7a4,4,0,0,0,4,4h14.5a4,4,0,0,0,4-4v-7a4,4,0,0,0-4-4Z"/><g class="cls-11"><rect class="cls-3" x="222.25" y="24.75" width="22.5" height="15"/><rect class="cls-4" x="222.25" y="29.75" width="22.5" height="10"/></g><path d="M240.75,25.75a3,3,0,0,1,3,3v7a3,3,0,0,1-3,3h-14.5a3,3,0,0,1-3-3v-7a3,3,0,0,1,3-3h14.5m0-1h-14.5a4,4,0,0,0-4,4v7a4,4,0,0,0,4,4h14.5a4,4,0,0,0,4-4v-7a4,4,0,0,0-4-4Z"/><g class="cls-12"><rect class="cls-3" x="244.75" y="24.75" width="22.5" height="15"/><rect class="cls-4" x="244.75" y="29.75" width="22.5" height="10"/></g><path d="M263.25,25.75a3,3,0,0,1,3,3v7a3,3,0,0,1-3,3h-14.5a3,3,0,0,1-3-3v-7a3,3,0,0,1,3-3h14.5m0-1h-14.5a4,4,0,0,0-4,4v7a4,4,0,0,0,4,4h14.5a4,4,0,0,0,4-4v-7a4,4,0,0,0-4-4Z"/><g class="cls-13"><rect class="cls-3" x="267.25" y="24.75" width="22.5" height="15"/><rect class="cls-4" x="267.25" y="29.75" width="22.5" height="10"/></g><path d="M285.75,25.75a3,3,0,0,1,3,3v7a3,3,0,0,1-3,3h-14.5a3,3,0,0,1-3-3v-7a3,3,0,0,1,3-3h14.5m0-1h-14.5a4,4,0,0,0-4,4v7a4,4,0,0,0,4,4h14.5a4,4,0,0,0,4-4v-7a4,4,0,0,0-4-4Z"/><g class="cls-14"><rect class="cls-3" x="289.75" y="24.75" width="22.5" height="15"/><rect class="cls-4" x="289.75" y="29.75" width="22.5" height="10"/></g><path d="M308.25,25.75a3,3,0,0,1,3,3v7a3,3,0,0,1-3,3h-14.5a3,3,0,0,1-3-3v-7a3,3,0,0,1,3-3h14.5m0-1h-14.5a4,4,0,0,0-4,4v7a4,4,0,0,0,4,4h14.5a4,4,0,0,0,4-4v-7a4,4,0,0,0-4-4Z"/><g class="cls-15"><rect class="cls-3" x="312.25" y="24.75" width="22.5" height="15"/><rect class="cls-4" x="312.25" y="29.75" width="22.5" height="10"/></g><path d="M330.75,25.75a3,3,0,0,1,3,3v7a3,3,0,0,1-3,3h-14.5a3,3,0,0,1-3-3v-7a3,3,0,0,1,3-3h14.5m0-1h-14.5a4,4,0,0,0-4,4v7a4,4,0,0,0,4,4h14.5a4,4,0,0,0,4-4v-7a4,4,0,0,0-4-4Z"/><g class="cls-16"><rect class="cls-3" x="334.75" y="24.75" width="22.5" height="15"/><rect class="cls-4" x="334.75" y="29.75" width="22.5" height="10"/></g><path d="M353.25,25.75a3,3,0,0,1,3,3v7a3,3,0,0,1-3,3h-14.5a3,3,0,0,1-3-3v-7a3,3,0,0,1,3-3h14.5m0-1h-14.5a4,4,0,0,0-4,4v7a4,4,0,0,0,4,4h14.5a4,4,0,0,0,4-4v-7a4,4,0,0,0-4-4Z"/><g class="cls-17"><rect class="cls-3" x="357.25" y="24.75" width="22.5" height="15"/><rect class="cls-4" x="357.25" y="29.75" width="22.5" height="10"/></g><path d="M375.75,25.75a3,3,0,0,1,3,3v7a3,3,0,0,1-3,3h-14.5a3,3,0,0,1-3-3v-7a3,3,0,0,1,3-3h14.5m0-1h-14.5a4,4,0,0,0-4,4v7a4,4,0,0,0,4,4h14.5a4,4,0,0,0,4-4v-7a4,4,0,0,0-4-4Z"/><g class="cls-18"><rect class="cls-3" x="379.75" y="24.75" width="22.5" height="15"/><rect class="cls-4" x="379.75" y="29.75" width="22.5" height="10"/></g><path d="M398.25,25.75a3,3,0,0,1,3,3v7a3,3,0,0,1-3,3h-14.5a3,3,0,0,1-3-3v-7a3,3,0,0,1,3-3h14.5m0-1h-14.5a4,4,0,0,0-4,4v7a4,4,0,0,0,4,4h14.5a4,4,0,0,0,4-4v-7a4,4,0,0,0-4-4Z"/><g class="cls-19"><rect class="cls-3" x="402.25" y="24.75" width="22.5" height="15"/><rect class="cls-4" x="402.25" y="29.75" width="22.5" height="10"/></g><path d="M420.75,25.75a3,3,0,0,1,3,3v7a3,3,0,0,1-3,3h-14.5a3,3,0,0,1-3-3v-7a3,3,0,0,1,3-3h14.5m0-1h-14.5a4,4,0,0,0-4,4v7a4,4,0,0,0,4,4h14.5a4,4,0,0,0,4-4v-7a4,4,0,0,0-4-4Z"/><g class="cls-20"><rect class="cls-3" x="424.75" y="24.75" width="22.5" height="15"/><rect class="cls-4" x="424.75" y="29.75" width="22.5" height="10"/></g><path d="M443.25,25.75a3,3,0,0,1,3,3v7a3,3,0,0,1-3,3h-14.5a3,3,0,0,1-3-3v-7a3,3,0,0,1,3-3h14.5m0-1h-14.5a4,4,0,0,0-4,4v7a4,4,0,0,0,4,4h14.5a4,4,0,0,0,4-4v-7a4,4,0,0,0-4-4Z"/><g class="cls-21"><rect class="cls-3" x="64.75" y="39.75" width="22.5" height="15"/><rect class="cls-4" x="64.75" y="44.75" width="22.5" height="10"/></g><path d="M83.25,40.75a3,3,0,0,1,3,3v7a3,3,0,0,1-3,3H68.75a3,3,0,0,1-3-3v-7a3,3,0,0,1,3-3h14.5m0-1H68.75a4,4,0,0,0-4,4v7a4,4,0,0,0,4,4h14.5a4,4,0,0,0,4-4v-7a4,4,0,0,0-4-4Z"/><g class="cls-22"><rect class="cls-3" x="87.25" y="39.75" width="22.5" height="15"/><rect class="cls-4" x="87.25" y="44.75" width="22.5" height="10"/></g><path d="M105.75,40.75a3,3,0,0,1,3,3v7a3,3,0,0,1-3,3H91.25a3,3,0,0,1-3-3v-7a3,3,0,0,1,3-3h14.5m0-1H91.25a4,4,0,0,0-4,4v7a4,4,0,0,0,4,4h14.5a4,4,0,0,0,4-4v-7a4,4,0,0,0-4-4Z"/><g class="cls-23"><rect class="cls-3" x="109.75" y="39.75" width="22.5" height="15"/><rect class="cls-4" x="109.75" y="44.75" width="22.5" height="10"/></g><path d="M128.25,40.75a3,3,0,0,1,3,3v7a3,3,0,0,1-3,3h-14.5a3,3,0,0,1-3-3v-7a3,3,0,0,1,3-3h14.5m0-1h-14.5a4,4,0,0,0-4,4v7a4,4,0,0,0,4,4h14.5a4,4,0,0,0,4-4v-7a4,4,0,0,0-4-4Z"/><g class="cls-24"><rect class="cls-3" x="132.25" y="39.75" width="22.5" height="15"/><rect class="cls-4" x="132.25" y="44.75" width="22.5" height="10"/></g><path d="M150.75,40.75a3,3,0,0,1,3,3v7a3,3,0,0,1-3,3h-14.5a3,3,0,0,1-3-3v-7a3,3,0,0,1,3-3h14.5m0-1h-14.5a4,4,0,0,0-4,4v7a4,4,0,0,0,4,4h14.5a4,4,0,0,0,4-4v-7a4,4,0,0,0-4-4Z"/><g class="cls-25"><rect class="cls-3" x="154.75" y="39.75" width="22.5" height="15"/><rect class="cls-4" x="154.75" y="44.75" width="22.5" height="10"/></g><path d="M173.25,40.75a3,3,0,0,1,3,3v7a3,3,0,0,1-3,3h-14.5a3,3,0,0,1-3-3v-7a3,3,0,0,1,3-3h14.5m0-1h-14.5a4,4,0,0,0-4,4v7a4,4,0,0,0,4,4h14.5a4,4,0,0,0,4-4v-7a4,4,0,0,0-4-4Z"/><g class="cls-26"><rect class="cls-3" x="177.25" y="39.75" width="22.5" height="15"/><rect class="cls-4" x="177.25" y="44.75" width="22.5" height="10"/></g><path d="M195.75,40.75a3,3,0,0,1,3,3v7a3,3,0,0,1-3,3h-14.5a3,3,0,0,1-3-3v-7a3,3,0,0,1,3-3h14.5m0-1h-14.5a4,4,0,0,0-4,4v7a4,4,0,0,0,4,4h14.5a4,4,0,0,0,4-4v-7a4,4,0,0,0-4-4Z"/><g class="cls-27"><rect class="cls-3" x="199.75" y="39.75" width="22.5" height="15"/><rect class="cls-4" x="199.75" y="44.75" width="22.5" height="10"/></g><path d="M218.25,40.75a3,3,0,0,1,3,3v7a3,3,0,0,1-3,3h-14.5a3,3,0,0,1-3-3v-7a3,3,0,0,1,3-3h14.5m0-1h-14.5a4,4,0,0,0-4,4v7a4,4,0,0,0,4,4h14.5a4,4,0,0,0,4-4v-7a4,4,0,0,0-4-4Z"/><g class="cls-28"><rect class="cls-3" x="222.25" y="39.75" width="22.5" height="15"/><rect class="cls-4" x="222.25" y="44.75" width="22.5" height="10"/></g><path d="M240.75,40.75a3,3,0,0,1,3,3v7a3,3,0,0,1-3,3h-14.5a3,3,0,0,1-3-3v-7a3,3,0,0,1,3-3h14.5m0-1h-14.5a4,4,0,0,0-4,4v7a4,4,0,0,0,4,4h14.5a4,4,0,0,0,4-4v-7a4,4,0,0,0-4-4Z"/><g class="cls-29"><rect class="cls-3" x="244.75" y="39.75" width="22.5" height="15"/><rect class="cls-4" x="244.75" y="44.75" width="22.5" height="10"/></g><path d="M263.25,40.75a3,3,0,0,1,3,3v7a3,3,0,0,1-3,3h-14.5a3,3,0,0,1-3-3v-7a3,3,0,0,1,3-3h14.5m0-1h-14.5a4,4,0,0,0-4,4v7a4,4,0,0,0,4,4h14.5a4,4,0,0,0,4-4v-7a4,4,0,0,0-4-4Z"/><g class="cls-30"><rect class="cls-3" x="267.25" y="39.75" width="22.5" height="15"/><rect class="cls-4" x="267.25" y="44.75" width="22.5" height="10"/></g><path d="M285.75,40.75a3,3,0,0,1,3,3v7a3,3,0,0,1-3,3h-14.5a3,3,0,0,1-3-3v-7a3,3,0,0,1,3-3h14.5m0-1h-14.5a4,4,0,0,0-4,4v7a4,4,0,0,0,4,4h14.5a4,4,0,0,0,4-4v-7a4,4,0,0,0-4-4Z"/><g class="cls-31"><rect class="cls-3" x="289.75" y="39.75" width="22.5" height="15"/><rect class="cls-4" x="289.75" y="44.75" width="22.5" height="10"/></g><path d="M308.25,40.75a3,3,0,0,1,3,3v7a3,3,0,0,1-3,3h-14.5a3,3,0,0,1-3-3v-7a3,3,0,0,1,3-3h14.5m0-1h-14.5a4,4,0,0,0-4,4v7a4,4,0,0,0,4,4h14.5a4,4,0,0,0,4-4v-7a4,4,0,0,0-4-4Z"/><g class="cls-32"><rect class="cls-3" x="312.25" y="39.75" width="22.5" height="15"/><rect class="cls-4" x="312.25" y="44.75" width="22.5" height="10"/></g><path d="M330.75,40.75a3,3,0,0,1,3,3v7a3,3,0,0,1-3,3h-14.5a3,3,0,0,1-3-3v-7a3,3,0,0,1,3-3h14.5m0-1h-14.5a4,4,0,0,0-4,4v7a4,4,0,0,0,4,4h14.5a4,4,0,0,0,4-4v-7a4,4,0,0,0-4-4Z"/><g class="cls-33"><rect class="cls-3" x="334.75" y="39.75" width="22.5" height="15"/><rect class="cls-4" x="334.75" y="44.75" width="22.5" height="10"/></g><path d="M353.25,40.75a3,3,0,0,1,3,3v7a3,3,0,0,1-3,3h-14.5a3,3,0,0,1-3-3v-7a3,3,0,0,1,3-3h14.5m0-1h-14.5a4,4,0,0,0-4,4v7a4,4,0,0,0,4,4h14.5a4,4,0,0,0,4-4v-7a4,4,0,0,0-4-4Z"/><g class="cls-34"><rect class="cls-3" x="357.25" y="39.75" width="22.5" height="15"/><rect class="cls-4" x="357.25" y="44.75" width="22.5" height="10"/></g><path d="M375.75,40.75a3,3,0,0,1,3,3v7a3,3,0,0,1-3,3h-14.5a3,3,0,0,1-3-3v-7a3,3,0,0,1,3-3h14.5m0-1h-14.5a4,4,0,0,0-4,4v7a4,4,0,0,0,4,4h14.5a4,4,0,0,0,4-4v-7a4,4,0,0,0-4-4Z"/><g class="cls-35"><rect class="cls-3" x="379.75" y="39.75" width="22.5" height="15"/><rect class="cls-4" x="379.75" y="44.75" width="22.5" height="10"/></g><path d="M398.25,40.75a3,3,0,0,1,3,3v7a3,3,0,0,1-3,3h-14.5a3,3,0,0,1-3-3v-7a3,3,0,0,1,3-3h14.5m0-1h-14.5a4,4,0,0,0-4,4v7a4,4,0,0,0,4,4h14.5a4,4,0,0,0,4-4v-7a4,4,0,0,0-4-4Z"/><g class="cls-36"><rect class="cls-3" x="402.25" y="39.75" width="22.5" height="15"/><rect class="cls-4" x="402.25" y="44.75" width="22.5" height="10"/></g><path d="M420.75,40.75a3,3,0,0,1,3,3v7a3,3,0,0,1-3,3h-14.5a3,3,0,0,1-3-3v-7a3,3,0,0,1,3-3h14.5m0-1h-14.5a4,4,0,0,0-4,4v7a4,4,0,0,0,4,4h14.5a4,4,0,0,0,4-4v-7a4,4,0,0,0-4-4Z"/><g class="cls-37"><rect class="cls-3" x="424.75" y="39.75" width="22.5" height="15"/><rect class="cls-4" x="424.75" y="44.75" width="22.5" height="10"/></g><path d="M443.25,40.75a3,3,0,0,1,3,3v7a3,3,0,0,1-3,3h-14.5a3,3,0,0,1-3-3v-7a3,3,0,0,1,3-3h14.5m0-1h-14.5a4,4,0,0,0-4,4v7a4,4,0,0,0,4,4h14.5a4,4,0,0,0,4-4v-7a4,4,0,0,0-4-4Z"/></svg>