<svg id="레이어_1" data-name="레이어 1" xmlns="http://www.w3.org/2000/svg" viewBox="0 0 512 512"><defs><style>.cls-1{fill:#ffa300;}.cls-2,.cls-4{fill:none;stroke-miterlimit:10;}.cls-2{stroke:#8a8f95;}.cls-3{fill:#8a8f95;}.cls-4{stroke:#000;}</style></defs><rect class="cls-1" x="65.25" y="25.25" width="21.5" height="29" rx="3.5"/><path d="M83.25,25.75a3,3,0,0,1,3,3v22a3,3,0,0,1-3,3H68.75a3,3,0,0,1-3-3v-22a3,3,0,0,1,3-3h14.5m0-1H68.75a4,4,0,0,0-4,4v22a4,4,0,0,0,4,4h14.5a4,4,0,0,0,4-4v-22a4,4,0,0,0-4-4Z"/><rect class="cls-1" x="87.75" y="25.25" width="21.5" height="29" rx="3.5"/><path d="M105.75,25.75a3,3,0,0,1,3,3v22a3,3,0,0,1-3,3H91.25a3,3,0,0,1-3-3v-22a3,3,0,0,1,3-3h14.5m0-1H91.25a4,4,0,0,0-4,4v22a4,4,0,0,0,4,4h14.5a4,4,0,0,0,4-4v-22a4,4,0,0,0-4-4Z"/><rect class="cls-1" x="110.25" y="25.25" width="21.5" height="29" rx="3.5"/><path d="M128.25,25.75a3,3,0,0,1,3,3v22a3,3,0,0,1-3,3h-14.5a3,3,0,0,1-3-3v-22a3,3,0,0,1,3-3h14.5m0-1h-14.5a4,4,0,0,0-4,4v22a4,4,0,0,0,4,4h14.5a4,4,0,0,0,4-4v-22a4,4,0,0,0-4-4Z"/><rect class="cls-1" x="132.75" y="25.25" width="21.5" height="29" rx="3.5"/><path d="M150.75,25.75a3,3,0,0,1,3,3v22a3,3,0,0,1-3,3h-14.5a3,3,0,0,1-3-3v-22a3,3,0,0,1,3-3h14.5m0-1h-14.5a4,4,0,0,0-4,4v22a4,4,0,0,0,4,4h14.5a4,4,0,0,0,4-4v-22a4,4,0,0,0-4-4Z"/><rect class="cls-1" x="155.25" y="25.25" width="21.5" height="29" rx="3.5"/><path d="M173.25,25.75a3,3,0,0,1,3,3v22a3,3,0,0,1-3,3h-14.5a3,3,0,0,1-3-3v-22a3,3,0,0,1,3-3h14.5m0-1h-14.5a4,4,0,0,0-4,4v22a4,4,0,0,0,4,4h14.5a4,4,0,0,0,4-4v-22a4,4,0,0,0-4-4Z"/><rect class="cls-1" x="177.75" y="25.25" width="21.5" height="29" rx="3.5"/><path d="M195.75,25.75a3,3,0,0,1,3,3v22a3,3,0,0,1-3,3h-14.5a3,3,0,0,1-3-3v-22a3,3,0,0,1,3-3h14.5m0-1h-14.5a4,4,0,0,0-4,4v22a4,4,0,0,0,4,4h14.5a4,4,0,0,0,4-4v-22a4,4,0,0,0-4-4Z"/><rect class="cls-1" x="200.25" y="25.25" width="21.5" height="29" rx="3.5"/><path d="M218.25,25.75a3,3,0,0,1,3,3v22a3,3,0,0,1-3,3h-14.5a3,3,0,0,1-3-3v-22a3,3,0,0,1,3-3h14.5m0-1h-14.5a4,4,0,0,0-4,4v22a4,4,0,0,0,4,4h14.5a4,4,0,0,0,4-4v-22a4,4,0,0,0-4-4Z"/><rect class="cls-1" x="222.75" y="25.25" width="21.5" height="29" rx="3.5"/><path d="M240.75,25.75a3,3,0,0,1,3,3v22a3,3,0,0,1-3,3h-14.5a3,3,0,0,1-3-3v-22a3,3,0,0,1,3-3h14.5m0-1h-14.5a4,4,0,0,0-4,4v22a4,4,0,0,0,4,4h14.5a4,4,0,0,0,4-4v-22a4,4,0,0,0-4-4Z"/><rect class="cls-1" x="245.25" y="25.25" width="21.5" height="29" rx="3.5"/><path d="M263.25,25.75a3,3,0,0,1,3,3v22a3,3,0,0,1-3,3h-14.5a3,3,0,0,1-3-3v-22a3,3,0,0,1,3-3h14.5m0-1h-14.5a4,4,0,0,0-4,4v22a4,4,0,0,0,4,4h14.5a4,4,0,0,0,4-4v-22a4,4,0,0,0-4-4Z"/><rect class="cls-1" x="267.75" y="25.25" width="21.5" height="29" rx="3.5"/><path d="M285.75,25.75a3,3,0,0,1,3,3v22a3,3,0,0,1-3,3h-14.5a3,3,0,0,1-3-3v-22a3,3,0,0,1,3-3h14.5m0-1h-14.5a4,4,0,0,0-4,4v22a4,4,0,0,0,4,4h14.5a4,4,0,0,0,4-4v-22a4,4,0,0,0-4-4Z"/><rect class="cls-1" x="290.25" y="25.25" width="21.5" height="29" rx="3.5"/><path d="M308.25,25.75a3,3,0,0,1,3,3v22a3,3,0,0,1-3,3h-14.5a3,3,0,0,1-3-3v-22a3,3,0,0,1,3-3h14.5m0-1h-14.5a4,4,0,0,0-4,4v22a4,4,0,0,0,4,4h14.5a4,4,0,0,0,4-4v-22a4,4,0,0,0-4-4Z"/><rect class="cls-1" x="312.75" y="25.25" width="21.5" height="29" rx="3.5"/><path d="M330.75,25.75a3,3,0,0,1,3,3v22a3,3,0,0,1-3,3h-14.5a3,3,0,0,1-3-3v-22a3,3,0,0,1,3-3h14.5m0-1h-14.5a4,4,0,0,0-4,4v22a4,4,0,0,0,4,4h14.5a4,4,0,0,0,4-4v-22a4,4,0,0,0-4-4Z"/><rect class="cls-1" x="335.25" y="25.25" width="21.5" height="29" rx="3.5"/><path d="M353.25,25.75a3,3,0,0,1,3,3v22a3,3,0,0,1-3,3h-14.5a3,3,0,0,1-3-3v-22a3,3,0,0,1,3-3h14.5m0-1h-14.5a4,4,0,0,0-4,4v22a4,4,0,0,0,4,4h14.5a4,4,0,0,0,4-4v-22a4,4,0,0,0-4-4Z"/><rect class="cls-1" x="357.75" y="25.25" width="21.5" height="29" rx="3.5"/><path d="M375.75,25.75a3,3,0,0,1,3,3v22a3,3,0,0,1-3,3h-14.5a3,3,0,0,1-3-3v-22a3,3,0,0,1,3-3h14.5m0-1h-14.5a4,4,0,0,0-4,4v22a4,4,0,0,0,4,4h14.5a4,4,0,0,0,4-4v-22a4,4,0,0,0-4-4Z"/><rect class="cls-1" x="380.25" y="25.25" width="21.5" height="29" rx="3.5"/><path d="M398.25,25.75a3,3,0,0,1,3,3v22a3,3,0,0,1-3,3h-14.5a3,3,0,0,1-3-3v-22a3,3,0,0,1,3-3h14.5m0-1h-14.5a4,4,0,0,0-4,4v22a4,4,0,0,0,4,4h14.5a4,4,0,0,0,4-4v-22a4,4,0,0,0-4-4Z"/><rect class="cls-1" x="402.75" y="25.25" width="21.5" height="29" rx="3.5"/><path d="M420.75,25.75a3,3,0,0,1,3,3v22a3,3,0,0,1-3,3h-14.5a3,3,0,0,1-3-3v-22a3,3,0,0,1,3-3h14.5m0-1h-14.5a4,4,0,0,0-4,4v22a4,4,0,0,0,4,4h14.5a4,4,0,0,0,4-4v-22a4,4,0,0,0-4-4Z"/><rect class="cls-1" x="425.25" y="25.25" width="21.5" height="29" rx="3.5"/><path d="M443.25,25.75a3,3,0,0,1,3,3v22a3,3,0,0,1-3,3h-14.5a3,3,0,0,1-3-3v-22a3,3,0,0,1,3-3h14.5m0-1h-14.5a4,4,0,0,0-4,4v22a4,4,0,0,0,4,4h14.5a4,4,0,0,0,4-4v-22a4,4,0,0,0-4-4Z"/><rect class="cls-1" x="457.75" y="55.25" width="29" height="21.5" rx="3.5"/><path d="M483.25,55.75a3,3,0,0,1,3,3v14.5a3,3,0,0,1-3,3h-22a3,3,0,0,1-3-3V58.75a3,3,0,0,1,3-3h22m0-1h-22a4,4,0,0,0-4,4v14.5a4,4,0,0,0,4,4h22a4,4,0,0,0,4-4V58.75a4,4,0,0,0-4-4Z"/><rect class="cls-1" x="457.75" y="77.75" width="29" height="21.5" rx="3.5"/><path d="M483.25,78.25a3,3,0,0,1,3,3v14.5a3,3,0,0,1-3,3h-22a3,3,0,0,1-3-3V81.25a3,3,0,0,1,3-3h22m0-1h-22a4,4,0,0,0-4,4v14.5a4,4,0,0,0,4,4h22a4,4,0,0,0,4-4V81.25a4,4,0,0,0-4-4Z"/><rect class="cls-1" x="457.75" y="100.25" width="29" height="21.5" rx="3.5"/><path d="M483.25,100.75a3,3,0,0,1,3,3v14.5a3,3,0,0,1-3,3h-22a3,3,0,0,1-3-3v-14.5a3,3,0,0,1,3-3h22m0-1h-22a4,4,0,0,0-4,4v14.5a4,4,0,0,0,4,4h22a4,4,0,0,0,4-4v-14.5a4,4,0,0,0-4-4Z"/><rect class="cls-1" x="457.75" y="122.75" width="29" height="21.5" rx="3.5"/><path d="M483.25,123.25a3,3,0,0,1,3,3v14.5a3,3,0,0,1-3,3h-22a3,3,0,0,1-3-3v-14.5a3,3,0,0,1,3-3h22m0-1h-22a4,4,0,0,0-4,4v14.5a4,4,0,0,0,4,4h22a4,4,0,0,0,4-4v-14.5a4,4,0,0,0-4-4Z"/><rect class="cls-1" x="457.75" y="145.25" width="29" height="21.5" rx="3.5"/><path d="M483.25,145.75a3,3,0,0,1,3,3v14.5a3,3,0,0,1-3,3h-22a3,3,0,0,1-3-3v-14.5a3,3,0,0,1,3-3h22m0-1h-22a4,4,0,0,0-4,4v14.5a4,4,0,0,0,4,4h22a4,4,0,0,0,4-4v-14.5a4,4,0,0,0-4-4Z"/><rect class="cls-1" x="457.75" y="167.75" width="29" height="21.5" rx="3.5"/><path d="M483.25,168.25a3,3,0,0,1,3,3v14.5a3,3,0,0,1-3,3h-22a3,3,0,0,1-3-3v-14.5a3,3,0,0,1,3-3h22m0-1h-22a4,4,0,0,0-4,4v14.5a4,4,0,0,0,4,4h22a4,4,0,0,0,4-4v-14.5a4,4,0,0,0-4-4Z"/><rect class="cls-1" x="457.75" y="210.25" width="29" height="21.5" rx="3.5"/><path d="M483.25,210.75a3,3,0,0,1,3,3v14.5a3,3,0,0,1-3,3h-22a3,3,0,0,1-3-3v-14.5a3,3,0,0,1,3-3h22m0-1h-22a4,4,0,0,0-4,4v14.5a4,4,0,0,0,4,4h22a4,4,0,0,0,4-4v-14.5a4,4,0,0,0-4-4Z"/><rect class="cls-1" x="457.75" y="232.75" width="29" height="21.5" rx="3.5"/><path d="M483.25,233.25a3,3,0,0,1,3,3v14.5a3,3,0,0,1-3,3h-22a3,3,0,0,1-3-3v-14.5a3,3,0,0,1,3-3h22m0-1h-22a4,4,0,0,0-4,4v14.5a4,4,0,0,0,4,4h22a4,4,0,0,0,4-4v-14.5a4,4,0,0,0-4-4Z"/><rect class="cls-1" x="457.75" y="255.25" width="29" height="21.5" rx="3.5"/><path d="M483.25,255.75a3,3,0,0,1,3,3v14.5a3,3,0,0,1-3,3h-22a3,3,0,0,1-3-3v-14.5a3,3,0,0,1,3-3h22m0-1h-22a4,4,0,0,0-4,4v14.5a4,4,0,0,0,4,4h22a4,4,0,0,0,4-4v-14.5a4,4,0,0,0-4-4Z"/><rect class="cls-1" x="457.75" y="277.75" width="29" height="21.5" rx="3.5"/><path d="M483.25,278.25a3,3,0,0,1,3,3v14.5a3,3,0,0,1-3,3h-22a3,3,0,0,1-3-3v-14.5a3,3,0,0,1,3-3h22m0-1h-22a4,4,0,0,0-4,4v14.5a4,4,0,0,0,4,4h22a4,4,0,0,0,4-4v-14.5a4,4,0,0,0-4-4Z"/><rect class="cls-1" x="457.75" y="300.25" width="29" height="21.5" rx="3.5"/><path d="M483.25,300.75a3,3,0,0,1,3,3v14.5a3,3,0,0,1-3,3h-22a3,3,0,0,1-3-3v-14.5a3,3,0,0,1,3-3h22m0-1h-22a4,4,0,0,0-4,4v14.5a4,4,0,0,0,4,4h22a4,4,0,0,0,4-4v-14.5a4,4,0,0,0-4-4Z"/><rect class="cls-1" x="457.75" y="322.75" width="29" height="21.5" rx="3.5"/><path d="M483.25,323.25a3,3,0,0,1,3,3v14.5a3,3,0,0,1-3,3h-22a3,3,0,0,1-3-3v-14.5a3,3,0,0,1,3-3h22m0-1h-22a4,4,0,0,0-4,4v14.5a4,4,0,0,0,4,4h22a4,4,0,0,0,4-4v-14.5a4,4,0,0,0-4-4Z"/><rect class="cls-1" x="457.75" y="345.25" width="29" height="21.5" rx="3.5"/><path d="M483.25,345.75a3,3,0,0,1,3,3v14.5a3,3,0,0,1-3,3h-22a3,3,0,0,1-3-3v-14.5a3,3,0,0,1,3-3h22m0-1h-22a4,4,0,0,0-4,4v14.5a4,4,0,0,0,4,4h22a4,4,0,0,0,4-4v-14.5a4,4,0,0,0-4-4Z"/><rect class="cls-1" x="457.75" y="367.75" width="29" height="21.5" rx="3.5"/><path d="M483.25,368.25a3,3,0,0,1,3,3v14.5a3,3,0,0,1-3,3h-22a3,3,0,0,1-3-3v-14.5a3,3,0,0,1,3-3h22m0-1h-22a4,4,0,0,0-4,4v14.5a4,4,0,0,0,4,4h22a4,4,0,0,0,4-4v-14.5a4,4,0,0,0-4-4Z"/><rect class="cls-1" x="457.75" y="390.25" width="29" height="21.5" rx="3.5"/><path d="M483.25,390.75a3,3,0,0,1,3,3v14.5a3,3,0,0,1-3,3h-22a3,3,0,0,1-3-3v-14.5a3,3,0,0,1,3-3h22m0-1h-22a4,4,0,0,0-4,4v14.5a4,4,0,0,0,4,4h22a4,4,0,0,0,4-4v-14.5a4,4,0,0,0-4-4Z"/><rect class="cls-1" x="457.75" y="412.75" width="29" height="21.5" rx="3.5"/><path d="M483.25,413.25a3,3,0,0,1,3,3v14.5a3,3,0,0,1-3,3h-22a3,3,0,0,1-3-3v-14.5a3,3,0,0,1,3-3h22m0-1h-22a4,4,0,0,0-4,4v14.5a4,4,0,0,0,4,4h22a4,4,0,0,0,4-4v-14.5a4,4,0,0,0-4-4Z"/><rect class="cls-1" x="457.75" y="435.25" width="29" height="21.5" rx="3.5"/><path d="M483.25,435.75a3,3,0,0,1,3,3v14.5a3,3,0,0,1-3,3h-22a3,3,0,0,1-3-3v-14.5a3,3,0,0,1,3-3h22m0-1h-22a4,4,0,0,0-4,4v14.5a4,4,0,0,0,4,4h22a4,4,0,0,0,4-4v-14.5a4,4,0,0,0-4-4Z"/><rect class="cls-1" x="425.25" y="457.75" width="21.5" height="29" rx="3.5"/><path d="M443.25,458.25a3,3,0,0,1,3,3v22a3,3,0,0,1-3,3h-14.5a3,3,0,0,1-3-3v-22a3,3,0,0,1,3-3h14.5m0-1h-14.5a4,4,0,0,0-4,4v22a4,4,0,0,0,4,4h14.5a4,4,0,0,0,4-4v-22a4,4,0,0,0-4-4Z"/><rect class="cls-1" x="402.75" y="457.75" width="21.5" height="29" rx="3.5"/><path d="M420.75,458.25a3,3,0,0,1,3,3v22a3,3,0,0,1-3,3h-14.5a3,3,0,0,1-3-3v-22a3,3,0,0,1,3-3h14.5m0-1h-14.5a4,4,0,0,0-4,4v22a4,4,0,0,0,4,4h14.5a4,4,0,0,0,4-4v-22a4,4,0,0,0-4-4Z"/><rect class="cls-1" x="380.25" y="457.75" width="21.5" height="29" rx="3.5"/><path d="M398.25,458.25a3,3,0,0,1,3,3v22a3,3,0,0,1-3,3h-14.5a3,3,0,0,1-3-3v-22a3,3,0,0,1,3-3h14.5m0-1h-14.5a4,4,0,0,0-4,4v22a4,4,0,0,0,4,4h14.5a4,4,0,0,0,4-4v-22a4,4,0,0,0-4-4Z"/><rect class="cls-1" x="357.75" y="457.75" width="21.5" height="29" rx="3.5"/><path d="M375.75,458.25a3,3,0,0,1,3,3v22a3,3,0,0,1-3,3h-14.5a3,3,0,0,1-3-3v-22a3,3,0,0,1,3-3h14.5m0-1h-14.5a4,4,0,0,0-4,4v22a4,4,0,0,0,4,4h14.5a4,4,0,0,0,4-4v-22a4,4,0,0,0-4-4Z"/><rect class="cls-1" x="335.25" y="457.75" width="21.5" height="29" rx="3.5"/><path d="M353.25,458.25a3,3,0,0,1,3,3v22a3,3,0,0,1-3,3h-14.5a3,3,0,0,1-3-3v-22a3,3,0,0,1,3-3h14.5m0-1h-14.5a4,4,0,0,0-4,4v22a4,4,0,0,0,4,4h14.5a4,4,0,0,0,4-4v-22a4,4,0,0,0-4-4Z"/><rect class="cls-1" x="312.75" y="457.75" width="21.5" height="29" rx="3.5"/><path d="M330.75,458.25a3,3,0,0,1,3,3v22a3,3,0,0,1-3,3h-14.5a3,3,0,0,1-3-3v-22a3,3,0,0,1,3-3h14.5m0-1h-14.5a4,4,0,0,0-4,4v22a4,4,0,0,0,4,4h14.5a4,4,0,0,0,4-4v-22a4,4,0,0,0-4-4Z"/><rect class="cls-1" x="290.25" y="457.75" width="21.5" height="29" rx="3.5"/><path d="M308.25,458.25a3,3,0,0,1,3,3v22a3,3,0,0,1-3,3h-14.5a3,3,0,0,1-3-3v-22a3,3,0,0,1,3-3h14.5m0-1h-14.5a4,4,0,0,0-4,4v22a4,4,0,0,0,4,4h14.5a4,4,0,0,0,4-4v-22a4,4,0,0,0-4-4Z"/><rect class="cls-1" x="267.75" y="457.75" width="21.5" height="29" rx="3.5"/><path d="M285.75,458.25a3,3,0,0,1,3,3v22a3,3,0,0,1-3,3h-14.5a3,3,0,0,1-3-3v-22a3,3,0,0,1,3-3h14.5m0-1h-14.5a4,4,0,0,0-4,4v22a4,4,0,0,0,4,4h14.5a4,4,0,0,0,4-4v-22a4,4,0,0,0-4-4Z"/><rect class="cls-1" x="245.25" y="457.75" width="21.5" height="29" rx="3.5"/><path d="M263.25,458.25a3,3,0,0,1,3,3v22a3,3,0,0,1-3,3h-14.5a3,3,0,0,1-3-3v-22a3,3,0,0,1,3-3h14.5m0-1h-14.5a4,4,0,0,0-4,4v22a4,4,0,0,0,4,4h14.5a4,4,0,0,0,4-4v-22a4,4,0,0,0-4-4Z"/><rect class="cls-1" x="222.75" y="457.75" width="21.5" height="29" rx="3.5"/><path d="M240.75,458.25a3,3,0,0,1,3,3v22a3,3,0,0,1-3,3h-14.5a3,3,0,0,1-3-3v-22a3,3,0,0,1,3-3h14.5m0-1h-14.5a4,4,0,0,0-4,4v22a4,4,0,0,0,4,4h14.5a4,4,0,0,0,4-4v-22a4,4,0,0,0-4-4Z"/><rect class="cls-1" x="200.25" y="457.75" width="21.5" height="29" rx="3.5"/><path d="M218.25,458.25a3,3,0,0,1,3,3v22a3,3,0,0,1-3,3h-14.5a3,3,0,0,1-3-3v-22a3,3,0,0,1,3-3h14.5m0-1h-14.5a4,4,0,0,0-4,4v22a4,4,0,0,0,4,4h14.5a4,4,0,0,0,4-4v-22a4,4,0,0,0-4-4Z"/><rect class="cls-1" x="177.75" y="457.75" width="21.5" height="29" rx="3.5"/><path d="M195.75,458.25a3,3,0,0,1,3,3v22a3,3,0,0,1-3,3h-14.5a3,3,0,0,1-3-3v-22a3,3,0,0,1,3-3h14.5m0-1h-14.5a4,4,0,0,0-4,4v22a4,4,0,0,0,4,4h14.5a4,4,0,0,0,4-4v-22a4,4,0,0,0-4-4Z"/><rect class="cls-1" x="155.25" y="457.75" width="21.5" height="29" rx="3.5"/><path d="M173.25,458.25a3,3,0,0,1,3,3v22a3,3,0,0,1-3,3h-14.5a3,3,0,0,1-3-3v-22a3,3,0,0,1,3-3h14.5m0-1h-14.5a4,4,0,0,0-4,4v22a4,4,0,0,0,4,4h14.5a4,4,0,0,0,4-4v-22a4,4,0,0,0-4-4Z"/><rect class="cls-1" x="132.75" y="457.75" width="21.5" height="29" rx="3.5"/><path d="M150.75,458.25a3,3,0,0,1,3,3v22a3,3,0,0,1-3,3h-14.5a3,3,0,0,1-3-3v-22a3,3,0,0,1,3-3h14.5m0-1h-14.5a4,4,0,0,0-4,4v22a4,4,0,0,0,4,4h14.5a4,4,0,0,0,4-4v-22a4,4,0,0,0-4-4Z"/><rect class="cls-1" x="110.25" y="457.75" width="21.5" height="29" rx="3.5"/><path d="M128.25,458.25a3,3,0,0,1,3,3v22a3,3,0,0,1-3,3h-14.5a3,3,0,0,1-3-3v-22a3,3,0,0,1,3-3h14.5m0-1h-14.5a4,4,0,0,0-4,4v22a4,4,0,0,0,4,4h14.5a4,4,0,0,0,4-4v-22a4,4,0,0,0-4-4Z"/><rect class="cls-1" x="87.75" y="457.75" width="21.5" height="29" rx="3.5"/><path d="M105.75,458.25a3,3,0,0,1,3,3v22a3,3,0,0,1-3,3H91.25a3,3,0,0,1-3-3v-22a3,3,0,0,1,3-3h14.5m0-1H91.25a4,4,0,0,0-4,4v22a4,4,0,0,0,4,4h14.5a4,4,0,0,0,4-4v-22a4,4,0,0,0-4-4Z"/><rect class="cls-1" x="65.25" y="457.75" width="21.5" height="29" rx="3.5"/><path d="M83.25,458.25a3,3,0,0,1,3,3v22a3,3,0,0,1-3,3H68.75a3,3,0,0,1-3-3v-22a3,3,0,0,1,3-3h14.5m0-1H68.75a4,4,0,0,0-4,4v22a4,4,0,0,0,4,4h14.5a4,4,0,0,0,4-4v-22a4,4,0,0,0-4-4Z"/><rect class="cls-1" x="25.25" y="425.25" width="29" height="21.5" rx="3.5"/><path d="M50.75,425.75a3,3,0,0,1,3,3v14.5a3,3,0,0,1-3,3h-22a3,3,0,0,1-3-3v-14.5a3,3,0,0,1,3-3h22m0-1h-22a4,4,0,0,0-4,4v14.5a4,4,0,0,0,4,4h22a4,4,0,0,0,4-4v-14.5a4,4,0,0,0-4-4Z"/><rect class="cls-1" x="25.25" y="402.75" width="29" height="21.5" rx="3.5"/><path d="M50.75,403.25a3,3,0,0,1,3,3v14.5a3,3,0,0,1-3,3h-22a3,3,0,0,1-3-3v-14.5a3,3,0,0,1,3-3h22m0-1h-22a4,4,0,0,0-4,4v14.5a4,4,0,0,0,4,4h22a4,4,0,0,0,4-4v-14.5a4,4,0,0,0-4-4Z"/><rect class="cls-1" x="25.25" y="380.25" width="29" height="21.5" rx="3.5"/><path d="M50.75,380.75a3,3,0,0,1,3,3v14.5a3,3,0,0,1-3,3h-22a3,3,0,0,1-3-3v-14.5a3,3,0,0,1,3-3h22m0-1h-22a4,4,0,0,0-4,4v14.5a4,4,0,0,0,4,4h22a4,4,0,0,0,4-4v-14.5a4,4,0,0,0-4-4Z"/><rect class="cls-1" x="25.25" y="357.75" width="29" height="21.5" rx="3.5"/><path d="M50.75,358.25a3,3,0,0,1,3,3v14.5a3,3,0,0,1-3,3h-22a3,3,0,0,1-3-3v-14.5a3,3,0,0,1,3-3h22m0-1h-22a4,4,0,0,0-4,4v14.5a4,4,0,0,0,4,4h22a4,4,0,0,0,4-4v-14.5a4,4,0,0,0-4-4Z"/><rect class="cls-1" x="25.25" y="335.25" width="29" height="21.5" rx="3.5"/><path d="M50.75,335.75a3,3,0,0,1,3,3v14.5a3,3,0,0,1-3,3h-22a3,3,0,0,1-3-3v-14.5a3,3,0,0,1,3-3h22m0-1h-22a4,4,0,0,0-4,4v14.5a4,4,0,0,0,4,4h22a4,4,0,0,0,4-4v-14.5a4,4,0,0,0-4-4Z"/><rect class="cls-1" x="25.25" y="312.75" width="29" height="21.5" rx="3.5"/><path d="M50.75,313.25a3,3,0,0,1,3,3v14.5a3,3,0,0,1-3,3h-22a3,3,0,0,1-3-3v-14.5a3,3,0,0,1,3-3h22m0-1h-22a4,4,0,0,0-4,4v14.5a4,4,0,0,0,4,4h22a4,4,0,0,0,4-4v-14.5a4,4,0,0,0-4-4Z"/><rect class="cls-1" x="25.25" y="290.25" width="29" height="21.5" rx="3.5"/><path d="M50.75,290.75a3,3,0,0,1,3,3v14.5a3,3,0,0,1-3,3h-22a3,3,0,0,1-3-3v-14.5a3,3,0,0,1,3-3h22m0-1h-22a4,4,0,0,0-4,4v14.5a4,4,0,0,0,4,4h22a4,4,0,0,0,4-4v-14.5a4,4,0,0,0-4-4Z"/><rect class="cls-1" x="25.25" y="267.75" width="29" height="21.5" rx="3.5"/><path d="M50.75,268.25a3,3,0,0,1,3,3v14.5a3,3,0,0,1-3,3h-22a3,3,0,0,1-3-3v-14.5a3,3,0,0,1,3-3h22m0-1h-22a4,4,0,0,0-4,4v14.5a4,4,0,0,0,4,4h22a4,4,0,0,0,4-4v-14.5a4,4,0,0,0-4-4Z"/><rect class="cls-1" x="25.25" y="245.25" width="29" height="21.5" rx="3.5"/><path d="M50.75,245.75a3,3,0,0,1,3,3v14.5a3,3,0,0,1-3,3h-22a3,3,0,0,1-3-3v-14.5a3,3,0,0,1,3-3h22m0-1h-22a4,4,0,0,0-4,4v14.5a4,4,0,0,0,4,4h22a4,4,0,0,0,4-4v-14.5a4,4,0,0,0-4-4Z"/><rect class="cls-1" x="25.25" y="222.75" width="29" height="21.5" rx="3.5"/><path d="M50.75,223.25a3,3,0,0,1,3,3v14.5a3,3,0,0,1-3,3h-22a3,3,0,0,1-3-3v-14.5a3,3,0,0,1,3-3h22m0-1h-22a4,4,0,0,0-4,4v14.5a4,4,0,0,0,4,4h22a4,4,0,0,0,4-4v-14.5a4,4,0,0,0-4-4Z"/><rect class="cls-1" x="25.25" y="200.25" width="29" height="21.5" rx="3.5"/><path d="M50.75,200.75a3,3,0,0,1,3,3v14.5a3,3,0,0,1-3,3h-22a3,3,0,0,1-3-3v-14.5a3,3,0,0,1,3-3h22m0-1h-22a4,4,0,0,0-4,4v14.5a4,4,0,0,0,4,4h22a4,4,0,0,0,4-4v-14.5a4,4,0,0,0-4-4Z"/><rect class="cls-1" x="25.25" y="177.75" width="29" height="21.5" rx="3.5"/><path d="M50.75,178.25a3,3,0,0,1,3,3v14.5a3,3,0,0,1-3,3h-22a3,3,0,0,1-3-3v-14.5a3,3,0,0,1,3-3h22m0-1h-22a4,4,0,0,0-4,4v14.5a4,4,0,0,0,4,4h22a4,4,0,0,0,4-4v-14.5a4,4,0,0,0-4-4Z"/><rect class="cls-1" x="25.25" y="155.25" width="29" height="21.5" rx="3.5"/><path d="M50.75,155.75a3,3,0,0,1,3,3v14.5a3,3,0,0,1-3,3h-22a3,3,0,0,1-3-3v-14.5a3,3,0,0,1,3-3h22m0-1h-22a4,4,0,0,0-4,4v14.5a4,4,0,0,0,4,4h22a4,4,0,0,0,4-4v-14.5a4,4,0,0,0-4-4Z"/><rect class="cls-1" x="25.25" y="132.75" width="29" height="21.5" rx="3.5"/><path d="M50.75,133.25a3,3,0,0,1,3,3v14.5a3,3,0,0,1-3,3h-22a3,3,0,0,1-3-3v-14.5a3,3,0,0,1,3-3h22m0-1h-22a4,4,0,0,0-4,4v14.5a4,4,0,0,0,4,4h22a4,4,0,0,0,4-4v-14.5a4,4,0,0,0-4-4Z"/><rect class="cls-1" x="25.25" y="110.25" width="29" height="21.5" rx="3.5"/><path d="M50.75,110.75a3,3,0,0,1,3,3v14.5a3,3,0,0,1-3,3h-22a3,3,0,0,1-3-3v-14.5a3,3,0,0,1,3-3h22m0-1h-22a4,4,0,0,0-4,4v14.5a4,4,0,0,0,4,4h22a4,4,0,0,0,4-4v-14.5a4,4,0,0,0-4-4Z"/><rect class="cls-1" x="25.25" y="87.75" width="29" height="21.5" rx="3.5"/><path d="M50.75,88.25a3,3,0,0,1,3,3v14.5a3,3,0,0,1-3,3h-22a3,3,0,0,1-3-3V91.25a3,3,0,0,1,3-3h22m0-1h-22a4,4,0,0,0-4,4v14.5a4,4,0,0,0,4,4h22a4,4,0,0,0,4-4V91.25a4,4,0,0,0-4-4Z"/><rect class="cls-1" x="25.25" y="65.25" width="29" height="21.5" rx="3.5"/><path d="M50.75,65.75a3,3,0,0,1,3,3v14.5a3,3,0,0,1-3,3h-22a3,3,0,0,1-3-3V68.75a3,3,0,0,1,3-3h22m0-1h-22a4,4,0,0,0-4,4v14.5a4,4,0,0,0,4,4h22a4,4,0,0,0,4-4V68.75a4,4,0,0,0-4-4Z"/><rect class="cls-2" x="188.5" y="188.5" width="135" height="135"/><line class="cls-2" x1="188.5" y1="188.5" x2="323.5" y2="323.5"/><line class="cls-2" x1="323.5" y1="188.5" x2="188.5" y2="323.5"/><path class="cls-3" d="M241.59,409.79a3.75,3.75,0,0,1-1.48-1.2,3.21,3.21,0,0,1-.59-1.73h1.53a1.83,1.83,0,0,0,.41,1,2.42,2.42,0,0,0,.94.71,2.89,2.89,0,0,0,1.25.27,2.93,2.93,0,0,0,1.46-.37A2.74,2.74,0,0,0,246.5,406a2.93,2.93,0,0,0-.38-1.47,2.67,2.67,0,0,0-1.05-1,3.13,3.13,0,0,0-1.53-.38,3.18,3.18,0,0,0-1.43.26,2,2,0,0,0-.94.88h-1.53l.9-7h6.89v1.41h-5.57l-.48,3.72h.13a3.45,3.45,0,0,1,1.05-.53,3.84,3.84,0,0,1,1.27-.2,4.38,4.38,0,0,1,2.16.54,3.83,3.83,0,0,1,1.51,1.53A4.45,4.45,0,0,1,248,406a4.22,4.22,0,0,1-.57,2.18,4,4,0,0,1-1.57,1.51,5,5,0,0,1-4.31.1Z"/><path class="cls-3" d="M255.28,405.47a1.15,1.15,0,0,1-.56-1,1.12,1.12,0,0,1,.56-1,1.13,1.13,0,0,1,.57-.15,1.12,1.12,0,0,1,1,.56,1.26,1.26,0,0,1,.14.57,1.19,1.19,0,0,1-.14.56,1.1,1.1,0,0,1-.41.42,1.07,1.07,0,0,1-.57.16A1,1,0,0,1,255.28,405.47Z"/><path class="cls-3" d="M270.34,397.74a4.11,4.11,0,0,1,1.71,1.9,8.06,8.06,0,0,1,.66,3.55,11.27,11.27,0,0,1-.58,3.81,5.24,5.24,0,0,1-1.67,2.41,4.17,4.17,0,0,1-2.59.82,4.37,4.37,0,0,1-2-.43,3.72,3.72,0,0,1-1.44-1.19,4,4,0,0,1-.71-1.77h1.57a2.68,2.68,0,0,0,.48,1,2.47,2.47,0,0,0,.87.69,2.76,2.76,0,0,0,1.21.26,2.94,2.94,0,0,0,1.8-.58,3.68,3.68,0,0,0,1.15-1.68,7.81,7.81,0,0,0,.41-2.63h-.18a3.9,3.9,0,0,1-2,1.49,4.18,4.18,0,0,1-1.28.2,4.11,4.11,0,0,1-2.09-.55,4,4,0,0,1-1.51-1.5,4.13,4.13,0,0,1-.56-2.15,4.35,4.35,0,0,1,.55-2.17,4.08,4.08,0,0,1,1.56-1.55,4.69,4.69,0,0,1,2.33-.55A4.75,4.75,0,0,1,270.34,397.74Zm-3.74,1.19a2.83,2.83,0,0,0-1,1.05,2.74,2.74,0,0,0-.38,1.43,2.9,2.9,0,0,0,.37,1.43,2.77,2.77,0,0,0,1,1,3,3,0,0,0,2.95,0,3,3,0,0,0,1.07-1.07,2.68,2.68,0,0,0,.39-1.39,2.76,2.76,0,0,0-.37-1.39,3,3,0,0,0-4-1.06Z"/><path class="cls-3" d="M255.54,366.93H240.93v-1.78h14.61Zm-4.37,1.14a4.21,4.21,0,0,1,1.92,1,2.21,2.21,0,0,1,0,3.19,4.36,4.36,0,0,1-1.91,1,13,13,0,0,1-6,0,4.35,4.35,0,0,1-1.93-1,2.12,2.12,0,0,1-.67-1.58,2.14,2.14,0,0,1,.67-1.6,4.25,4.25,0,0,1,1.93-1,11,11,0,0,1,3-.35A10.83,10.83,0,0,1,251.17,368.07Zm2.61-8h-8.86v3.12h-2.23v-4.86h11.09Zm.09,3.73H242.69V362h11.18Zm-7.53,5.79a2.58,2.58,0,0,0-1.1.42.83.83,0,0,0-.37.69.84.84,0,0,0,.37.7,2.73,2.73,0,0,0,1.1.4,10.6,10.6,0,0,0,1.85.13,10.48,10.48,0,0,0,1.84-.13,2.67,2.67,0,0,0,1.1-.4.83.83,0,0,0,0-1.39,2.57,2.57,0,0,0-1.11-.42,10.32,10.32,0,0,0-1.83-.14A10.48,10.48,0,0,0,246.34,369.57Zm3-3.71h-2.2v-3.12h2.2Z"/><path class="cls-3" d="M264.11,363.85a11.19,11.19,0,0,1-2.32,3.9,13.78,13.78,0,0,1-4.22,3.05l-1.26-1.71a13.83,13.83,0,0,0,3.54-2.46,9,9,0,0,0,2.08-3.1,10.61,10.61,0,0,0,.7-3.89v-.4h2.19A14.51,14.51,0,0,1,264.11,363.85Zm-.36-2.78H257.2v-1.83h6.55Zm5.34,12.5h-2.25v-16h2.25Zm2.26-8h-2.84v-1.84h2.84Z"/><path class="cls-3" d="M408.9,288.81l-4.57-4.35c-.61-.56-1.1-1-1.48-1.3a5.33,5.33,0,0,0-1.07-.69,2.58,2.58,0,0,0-1.09-.24,1.89,1.89,0,0,0-1.13.34,2.13,2.13,0,0,0-.76.91,3,3,0,0,0-.27,1.28,2.72,2.72,0,0,0,.3,1.31,2,2,0,0,0,.84.86,2.42,2.42,0,0,0,1.25.31v1.5a3.57,3.57,0,0,1-3.29-2,4.44,4.44,0,0,1-.47-2.07,4.36,4.36,0,0,1,.46-2,3.57,3.57,0,0,1,1.28-1.41,3.28,3.28,0,0,1,1.79-.51,3.81,3.81,0,0,1,1.39.26,6,6,0,0,1,1.47.89,22.51,22.51,0,0,1,2,1.76l3,2.92h.1v-6.06h1.41v8.26Z"/><path class="cls-3" d="M405.47,273.18a1.06,1.06,0,0,1-.42.42,1,1,0,0,1-.56.14,1,1,0,0,1-.57-.14,1.14,1.14,0,0,1-.41-1.55,1.12,1.12,0,0,1,1-.56,1.15,1.15,0,0,1,1,.56,1.08,1.08,0,0,1,0,1.13Z"/><path d="M409.61,262.46a4.46,4.46,0,0,1-2,1.86,8,8,0,0,1-3.61.7,9.3,9.3,0,0,1-3.67-.65,5.21,5.21,0,0,1-2.35-1.83,4.72,4.72,0,0,1-.81-2.75,5.12,5.12,0,0,1,.48-2.25,4.18,4.18,0,0,1,1.33-1.6,4.06,4.06,0,0,1,1.9-.73v2.61a1.88,1.88,0,0,0-.78.37,1.63,1.63,0,0,0-.5.68,2.43,2.43,0,0,0-.17.92,2.2,2.2,0,0,0,.49,1.44,3,3,0,0,0,1.4.89,7.27,7.27,0,0,0,2.17.31v-.1a3.37,3.37,0,0,1-1-.8,3.55,3.55,0,0,1-.62-1.13,4.23,4.23,0,0,1-.21-1.34,4,4,0,0,1,.53-2,3.88,3.88,0,0,1,1.47-1.43,4.38,4.38,0,0,1,2.12-.52,4.29,4.29,0,0,1,2.29.61,4.1,4.1,0,0,1,1.58,1.69,5.79,5.79,0,0,1-.06,5.09Zm-1.76-3.72a2.13,2.13,0,0,0-.82-.81,2.48,2.48,0,0,0-2.31,0,2.1,2.1,0,0,0-.81.81,2.39,2.39,0,0,0,0,2.3,2.18,2.18,0,0,0,.82.83,2.28,2.28,0,0,0,2.28,0,2.22,2.22,0,0,0,.82-.82,2.13,2.13,0,0,0,.31-1.15A2.25,2.25,0,0,0,407.85,258.74Z"/><path class="cls-3" d="M405.47,248a1.13,1.13,0,0,1-.42.42,1,1,0,0,1-.56.14,1,1,0,0,1-.57-.14,1.18,1.18,0,0,1-.41-.42,1.14,1.14,0,0,1,0-1.13,1.12,1.12,0,0,1,1-.56,1.15,1.15,0,0,1,1,.56,1.08,1.08,0,0,1,0,1.13Z"/><path class="cls-3" d="M410.06,234.94v1.6H399v.07L401,239.7h-1.6l-2.11-3.16v-1.6Z"/><path class="cls-3" d="M409.47,229.78a4.74,4.74,0,0,1-2.23,1.52,12,12,0,0,1-7.06,0,4.75,4.75,0,0,1-2.25-1.53,4.09,4.09,0,0,1,0-4.78,4.75,4.75,0,0,1,2.25-1.53,10.48,10.48,0,0,1,3.52-.53,10.83,10.83,0,0,1,3.54.52,4.67,4.67,0,0,1,2.23,1.52,3.85,3.85,0,0,1,.76,2.41A3.8,3.8,0,0,1,409.47,229.78Zm-1.24-4a3.75,3.75,0,0,0-1.75-1,10.18,10.18,0,0,0-2.78-.33,9.93,9.93,0,0,0-2.8.34,3.87,3.87,0,0,0-1.77,1,2.33,2.33,0,0,0,0,3.12,4,4,0,0,0,1.77,1,9.9,9.9,0,0,0,2.8.35,9.75,9.75,0,0,0,2.78-.35,3.92,3.92,0,0,0,1.75-1,2.22,2.22,0,0,0,.6-1.57A2.25,2.25,0,0,0,408.23,225.81Z"/><path class="cls-3" d="M366.63,258.39v2.24h-9v-2.24Zm-1.71,9.8v2.25h-6.55v-2.25Zm-2.1-12V259H361v-2.78Zm1,9.35c-.11-1.18-.28-2.38-.51-3.61l1.84-.26a33,33,0,0,1,.51,3.65c.1,1.22.15,2.46.16,3.73v1.37H364v-1.37C364,267.91,363.9,266.73,363.79,265.56Zm9.62-7.17v10.49h-6.05V258.39Zm-1.76,8.27v-6.07H369.1v6.07Z"/><path class="cls-3" d="M373.57,242.91v2.25h-16v-2.25Zm-9.72,5a11.19,11.19,0,0,1,3.9,2.32,13.78,13.78,0,0,1,3.05,4.22l-1.71,1.26a13.83,13.83,0,0,0-2.46-3.54,9,9,0,0,0-3.1-2.08,10.41,10.41,0,0,0-3.89-.69h-.4v-2.2A14.51,14.51,0,0,1,363.85,247.89Zm-2.78.36v6.55h-1.83v-6.55Zm4.51-7.6v2.84h-1.84v-2.84Z"/><path class="cls-3" d="M284.68,102.19a3.86,3.86,0,0,1,1.57,1.19,3,3,0,0,1,.61,1.76h-1.6a1.68,1.68,0,0,0-.43-1,2.36,2.36,0,0,0-1-.69,4,4,0,0,0-2.88,0,2.3,2.3,0,0,0-1,.79,1.89,1.89,0,0,0-.37,1.16,2.17,2.17,0,0,0,.36,1.23,2.32,2.32,0,0,0,1.06.84,4.26,4.26,0,0,0,1.67.3h1v1.39h-1a3.35,3.35,0,0,0-1.37.27,2.07,2.07,0,0,0-.92.77,2,2,0,0,0-.33,1.14,2.14,2.14,0,0,0,.29,1.11,1.89,1.89,0,0,0,.83.75,2.78,2.78,0,0,0,1.26.26,3.25,3.25,0,0,0,1.28-.25,2.39,2.39,0,0,0,1-.69,1.75,1.75,0,0,0,.42-1.06h1.53a3.08,3.08,0,0,1-.62,1.76,3.87,3.87,0,0,1-1.53,1.19,4.89,4.89,0,0,1-2.07.43,4.39,4.39,0,0,1-2.07-.47,3.43,3.43,0,0,1-1.36-1.25,3.25,3.25,0,0,1-.46-1.69,3.21,3.21,0,0,1,.25-1.3,2.74,2.74,0,0,1,.76-1,3.12,3.12,0,0,1,1.16-.6v-.09a3.36,3.36,0,0,1-1.42-.53,2.68,2.68,0,0,1-.92-1.06,3.33,3.33,0,0,1-.32-1.46,3.2,3.2,0,0,1,.57-1.86,3.83,3.83,0,0,1,1.59-1.31,5.36,5.36,0,0,1,2.27-.47A5.71,5.71,0,0,1,284.68,102.19Z"/><path class="cls-3" d="M270.67,106.53a1.21,1.21,0,0,1,.42.42,1,1,0,0,1,.14.57,1,1,0,0,1-.14.56,1.14,1.14,0,0,1-1.55.41,1.12,1.12,0,0,1-.56-1,1.1,1.1,0,0,1,.15-.57,1.27,1.27,0,0,1,.41-.42,1.08,1.08,0,0,1,1.13,0Z"/><path class="cls-3" d="M255.87,113.18v.08h6.73v1.41h-8.36v-1.48l5.81-11.25h1.66Z"/><path class="cls-3" d="M247.14,106.53a1.27,1.27,0,0,1,.41.42,1.1,1.1,0,0,1,.15.57,1.12,1.12,0,0,1-.56,1,1.1,1.1,0,0,1-.57.15,1.16,1.16,0,0,1-.57-.15,1.12,1.12,0,0,1-.4-.41,1.15,1.15,0,0,1-.15-.56,1.1,1.1,0,0,1,.15-.57,1.24,1.24,0,0,1,.4-.42,1.17,1.17,0,0,1,.57-.16A1.11,1.11,0,0,1,247.14,106.53Z"/><path class="cls-3" d="M234.07,101.94h1.6V113h.07l3.1-2.06v1.6l-3.17,2.11h-1.6Z"/><path class="cls-3" d="M226.18,101.94h1.6V113h.07l3.09-2.06v1.6l-3.16,2.11h-1.6Z"/><path class="cls-3" d="M257.58,138.36h2.23v16h-2.23Zm1.1,9.2H263v1.8h-4.27Zm5.93.26a7.26,7.26,0,0,0-1.3-2.48,5.68,5.68,0,0,0-2.16-1.65l1.37-1.79a6.39,6.39,0,0,1,2.41,2,9.18,9.18,0,0,1,1.43,3.06,14.62,14.62,0,0,1,.47,3.79v2.39H265v-2.39A10.23,10.23,0,0,0,264.61,147.82Zm1.37-.89a9.78,9.78,0,0,1,1.47-3.2,6.57,6.57,0,0,1,2.46-2.12l1.4,1.84a5.78,5.78,0,0,0-2.22,1.73,8.08,8.08,0,0,0-1.34,2.59,10.64,10.64,0,0,0-.45,3v2.39h-1.81v-2.39A14.87,14.87,0,0,1,266,146.93Z"/><path class="cls-3" d="M240.65,146.42h2.84v1.84h-2.84Zm2.26-8h2.25v16h-2.25Zm5,9.72a11.19,11.19,0,0,1,2.32-3.9,13.78,13.78,0,0,1,4.22-3.05l1.26,1.71a13.83,13.83,0,0,0-3.54,2.46,9,9,0,0,0-2.08,3.1,10.41,10.41,0,0,0-.69,3.89v.4h-2.2A14.51,14.51,0,0,1,247.89,148.15Zm.36,2.77h6.55v1.84h-6.55Z"/><path class="cls-3" d="M104.93,229.14h9.74v1.51H101.94v-1.51Zm.92-6.17,8.82,5.73v1h-2V229l-6.63-4.3h-.11v7.75h-1.39V223Z"/><path class="cls-3" d="M106.53,239.56a1.27,1.27,0,0,1,.42-.41,1,1,0,0,1,.57-.15,1,1,0,0,1,.56.15,1.15,1.15,0,0,1,.41.41,1.14,1.14,0,0,1,0,1.13,1.08,1.08,0,0,1-.41.41,1.15,1.15,0,0,1-.56.15,1.1,1.1,0,0,1-.57-.15,1.18,1.18,0,0,1-.42-.41,1.08,1.08,0,0,1,0-1.13Z"/><path class="cls-3" d="M102.22,250a3.86,3.86,0,0,1,1.27-1.6,3.1,3.1,0,0,1,1.83-.57,3.51,3.51,0,0,1,1.51.34,3.24,3.24,0,0,1,1.16.94,2.74,2.74,0,0,1,.56,1.31h.07a2.45,2.45,0,0,1,.56-1.1,2.77,2.77,0,0,1,1-.73,3.15,3.15,0,0,1,3,.25,3.65,3.65,0,0,1,1.21,1.44,5.07,5.07,0,0,1,0,4.13,3.62,3.62,0,0,1-1.21,1.45,3,3,0,0,1-1.73.53,3.22,3.22,0,0,1-1.28-.27,2.81,2.81,0,0,1-1-.75,2.47,2.47,0,0,1-.56-1.09h-.07a2.83,2.83,0,0,1-.56,1.31,3.34,3.34,0,0,1-1.16.94,3.38,3.38,0,0,1-1.51.35,3.11,3.11,0,0,1-1.83-.58,3.83,3.83,0,0,1-1.27-1.61,6.34,6.34,0,0,1,0-4.69Zm1.23,3.91a2.32,2.32,0,0,0,.79,1,1.94,1.94,0,0,0,1.17.36,2.12,2.12,0,0,0,1.25-.38,2.52,2.52,0,0,0,.87-1,3.56,3.56,0,0,0,.32-1.52,3.49,3.49,0,0,0-.32-1.51,2.52,2.52,0,0,0-.87-1.05,2.12,2.12,0,0,0-1.25-.38,1.93,1.93,0,0,0-1.17.35,2.34,2.34,0,0,0-.79,1,3.79,3.79,0,0,0-.29,1.57A3.75,3.75,0,0,0,103.45,253.94Zm6-.27a2.14,2.14,0,0,0,.76.89,2,2,0,0,0,1.12.32,2.06,2.06,0,0,0,1.11-.31,2,2,0,0,0,.75-.88,3,3,0,0,0,.26-1.31,3,3,0,0,0-.26-1.31,2,2,0,0,0-1.86-1.19,1.94,1.94,0,0,0-1.12.33,2.14,2.14,0,0,0-.76.89,2.77,2.77,0,0,0-.28,1.28A2.84,2.84,0,0,0,109.47,253.67Z"/><path class="cls-3" d="M106.53,264.08a1.27,1.27,0,0,1,.42-.41,1.1,1.1,0,0,1,.57-.15,1.12,1.12,0,0,1,1,.56,1.14,1.14,0,0,1,0,1.13,1.08,1.08,0,0,1-.41.41,1.15,1.15,0,0,1-.56.15,1.1,1.1,0,0,1-.57-.15,1.18,1.18,0,0,1-.42-.41,1.08,1.08,0,0,1,0-1.13Z"/><path class="cls-3" d="M101.94,277.15v-1.6H113v-.07l-2.06-3.1h1.6l2.11,3.17v1.6Z"/><path class="cls-3" d="M103.1,280.52l4.57,4.34c.61.57,1.11,1,1.48,1.31a5.38,5.38,0,0,0,1.08.69,2.51,2.51,0,0,0,1.08.24,2,2,0,0,0,1.13-.34,2.13,2.13,0,0,0,.76-.91,3,3,0,0,0,.27-1.29,2.71,2.71,0,0,0-.29-1.3,2.2,2.2,0,0,0-.84-.87,2.55,2.55,0,0,0-1.26-.3v-1.5a3.63,3.63,0,0,1,2,.52,3.56,3.56,0,0,1,1.33,1.44,4.45,4.45,0,0,1,.48,2.07,4.37,4.37,0,0,1-.47,2,3.62,3.62,0,0,1-1.27,1.41,3.31,3.31,0,0,1-1.8.51,3.66,3.66,0,0,1-1.39-.27,6,6,0,0,1-1.47-.88,24.46,24.46,0,0,1-2-1.77l-3-2.91h-.11v6.06h-1.41v-8.26Z"/><path class="cls-3" d="M138.36,254.42v-2.23h16v2.23Zm8.57-8.4a9.78,9.78,0,0,1-3.2-1.47,6.54,6.54,0,0,1-2.12-2.45l1.84-1.41a5.7,5.7,0,0,0,1.73,2.22,7.88,7.88,0,0,0,2.59,1.34,10.64,10.64,0,0,0,3,.45h2.39v1.82h-2.39A14.87,14.87,0,0,1,146.93,246Zm.89,1.38a7.24,7.24,0,0,0-2.48,1.29,5.68,5.68,0,0,0-1.65,2.16l-1.79-1.37a6.39,6.39,0,0,1,2-2.41,9.38,9.38,0,0,1,3.06-1.43,14.62,14.62,0,0,1,3.79-.47h2.39V247h-2.39A9.9,9.9,0,0,0,147.82,247.4Zm-.26,5.92v-4.26h1.8v4.26Z"/><path class="cls-3" d="M138.43,269.1v-2.25h16v2.25Zm9.72-5a11,11,0,0,1-3.9-2.32,13.78,13.78,0,0,1-3.05-4.22l1.71-1.26a13.83,13.83,0,0,0,2.46,3.54,8.83,8.83,0,0,0,3.1,2.08,10.61,10.61,0,0,0,3.89.7h.4v2.19A14.51,14.51,0,0,1,148.15,264.11Zm-1.73,7.24v-2.83h1.84v2.83Zm4.5-7.6V257.2h1.84v6.55Z"/><line class="cls-4" x1="436" y1="209.44" x2="436" y2="328.35"/><polygon points="431.91 325.04 432.64 324.36 436 327.97 439.36 324.36 440.09 325.04 436 329.44 431.91 325.04"/><path d="M369.48,152.93a27.74,27.74,0,0,0,2.82-.23l.1,1.26a19.07,19.07,0,0,1-2.85.36c-1,.06-2.09.09-3.14.09l-.19-1.42C367.35,153,368.44,153,369.48,152.93Zm2.71-5.3h-5.75v-1.41h5.75Zm-3.35,5.75h-1.58v-6.25h1.58Zm2.55,0h-1.58v-6.25h1.58Zm3.05,3.28h-1.65V145h1.65ZM376,151h-2.1v-1.41H376Zm1.13,6.24h-1.68V144.8h1.68Z"/><path d="M389.82,151.69H378.44v-1.3h11.38Zm-1.36,3.55h-7v1.09h-1.74v-2.19h7v-.62h-7V152.3h8.73Zm.36,1.9h-9.08V156h9.08Zm-.38-9.18h-6.85v1h-1.73v-2.15h6.83v-.63h-6.85V145h8.6Zm.21,1.85h-8.79v-1.18h8.79Z"/><path d="M399.72,149.68a8.67,8.67,0,0,1-1.8,3,10.79,10.79,0,0,1-3.28,2.37l-1-1.33a11.09,11.09,0,0,0,2.76-1.91,7.11,7.11,0,0,0,1.62-2.41,8.52,8.52,0,0,0,.54-3v-.31h1.71A11.79,11.79,0,0,1,399.72,149.68Zm-.28-2.16h-5.09v-1.43h5.09Zm4.16,9.72h-1.75V144.8h1.75Zm1.75-6.22h-2.2v-1.43h2.2Z"/><path d="M409.8,150.86a7.8,7.8,0,0,1-1.12,2.46,5.48,5.48,0,0,1-1.81,1.66l-1.14-1.32a4.76,4.76,0,0,0,1.69-1.4,6.33,6.33,0,0,0,1-2,7.73,7.73,0,0,0,.34-2.31v-1.18h1.39v1.18A11.2,11.2,0,0,1,409.8,150.86Zm3.32-3.45h-6.91V146h6.91ZM410.93,150a6.44,6.44,0,0,0,1,1.95,4.88,4.88,0,0,0,1.67,1.37l-1,1.33a4.93,4.93,0,0,1-1.83-1.59,8.12,8.12,0,0,1-1.17-2.4,9.71,9.71,0,0,1-.41-2.73v-1.18h1.38v1.18A6.34,6.34,0,0,0,410.93,150Zm4.9-.32h-3.24v-1.45h3.24Zm0,2.59h-3.24v-1.43h3.24Zm.56,5h-1.75V144.8h1.75Z"/><path d="M423.92,149.68a8.67,8.67,0,0,1-1.8,3,10.71,10.71,0,0,1-3.29,2.37l-1-1.33a11.09,11.09,0,0,0,2.76-1.91,7.11,7.11,0,0,0,1.62-2.41,8.52,8.52,0,0,0,.54-3v-.31h1.7A11.5,11.5,0,0,1,423.92,149.68Zm-.28-2.16h-5.09v-1.43h5.09Zm4.16,9.72h-1.75V144.8h1.75Zm1.75-6.22h-2.2v-1.43h2.2Z"/><path d="M441.45,152.27H430.07v-1.36h11.38ZM433.13,156h-1.75v-2.69h1.75Zm7.14,1h-8.89v-1.4h8.89Zm-7-8.08h-1.74v-3.65h1.74Zm7,.67h-8.7v-1.36h8.7Z"/><path d="M420.08,164h2.55V162.4h1.75v5.84h-6V162.4h1.73Zm5.93,5.55a3.22,3.22,0,0,1,1.45.82,1.91,1.91,0,0,1,0,2.6,3.15,3.15,0,0,1-1.45.84,8.15,8.15,0,0,1-2.24.3,8.38,8.38,0,0,1-2.27-.3,3.26,3.26,0,0,1-1.48-.84,1.89,1.89,0,0,1,0-2.6,3.33,3.33,0,0,1,1.48-.82,8.05,8.05,0,0,1,2.27-.28A7.83,7.83,0,0,1,426,169.52Zm-3.38-2.65v-1.55h-2.55v1.55Zm-.24,3.83a2,2,0,0,0-.85.35.76.76,0,0,0,0,1.18,2,2,0,0,0,.86.36,6,6,0,0,0,1.37.13,5.8,5.8,0,0,0,1.36-.13,1.93,1.93,0,0,0,.84-.36.76.76,0,0,0,0-1.18,1.93,1.93,0,0,0-.84-.35,6.47,6.47,0,0,0-1.36-.12A6.67,6.67,0,0,0,422.39,170.7Zm5.46-1.75h-1.74V161.6h1.74Zm1.68-3h-2.17v-1.45h2.17Z"/><path d="M437.46,164.17h-7.39v-1.36h7.39Zm-2.1.7a2.57,2.57,0,0,1,1.09.79,1.87,1.87,0,0,1,.39,1.17,1.83,1.83,0,0,1-.39,1.16,2.44,2.44,0,0,1-1.08.78,4.14,4.14,0,0,1-1.59.28,4.25,4.25,0,0,1-1.61-.28,2.42,2.42,0,0,1-1.09-.78,1.83,1.83,0,0,1-.39-1.16,1.87,1.87,0,0,1,.39-1.17,2.51,2.51,0,0,1,1.09-.79,4.24,4.24,0,0,1,1.61-.29A4.12,4.12,0,0,1,435.36,164.87Zm2.75,5a3.31,3.31,0,0,1,1.46.77,1.59,1.59,0,0,1,.52,1.19,1.56,1.56,0,0,1-.52,1.18,3.41,3.41,0,0,1-1.46.76,8.15,8.15,0,0,1-2.23.27,8.36,8.36,0,0,1-2.25-.27,3.37,3.37,0,0,1-1.45-.76,1.58,1.58,0,0,1-.51-1.18,1.6,1.6,0,0,1,.51-1.19,3.27,3.27,0,0,1,1.45-.77,8.81,8.81,0,0,1,2.25-.26A8.59,8.59,0,0,1,438.11,169.89ZM433,166a1,1,0,0,0-.49.33.84.84,0,0,0-.17.53.76.76,0,0,0,.17.5,1.08,1.08,0,0,0,.49.32,1.9,1.9,0,0,0,.74.1,1.85,1.85,0,0,0,.73-.1,1.11,1.11,0,0,0,.5-.32.71.71,0,0,0,.18-.5.79.79,0,0,0-.18-.53,1,1,0,0,0-.5-.33,2.59,2.59,0,0,0-.73-.12A2.66,2.66,0,0,0,433,166Zm1.61-2.43H432.9v-2h1.75Zm-.14,7.52a2,2,0,0,0-.83.29.58.58,0,0,0-.28.5.57.57,0,0,0,.28.49,2.08,2.08,0,0,0,.84.31,7.47,7.47,0,0,0,1.36.11,7.2,7.2,0,0,0,1.35-.11,2,2,0,0,0,.82-.31.57.57,0,0,0,.28-.49.58.58,0,0,0-.28-.5,1.94,1.94,0,0,0-.82-.29,7.3,7.3,0,0,0-1.35-.1A7.46,7.46,0,0,0,434.51,171.06Zm5.44-1.54h-1.74V161.6H440Zm1.62-4.68h-2.16v-1.41h2.16Zm0,2.7h-2.16v-1.43h2.16Z"/></svg>